<svg width="315" height="305" viewBox="0 0 315 305" fill="none" xmlns="http://www.w3.org/2000/svg">
<path d="M2.23401 149.149C2.23401 149.067 2.30065 149 2.38286 149H314.851C314.933 149 315 149.067 315 149.149V149.149C315 231.357 248.357 298 166.149 298H151.085C68.8769 298 2.23401 231.357 2.23401 149.149V149.149Z" fill="#B6B6B6"/>
<path d="M315 148.851C315 148.933 314.933 149 314.851 149H2.3829C2.30069 149 2.23404 148.933 2.23404 148.851V148.851C2.23404 66.6429 68.877 0 151.085 0H166.149C248.357 0 315 66.6429 315 148.851V148.851Z" fill="black"/>
<path d="M0 149H315V166.88H0V149Z" fill="#F0F0F0"/>
<ellipse cx="158.617" cy="149" rx="67.0213" ry="63.8571" fill="#F0F0F0"/>
<g filter="url(#filter0_d_3_27)">
<ellipse cx="158.394" cy="148.787" rx="50.266" ry="47.8929" fill="white"/>
</g>
<defs>
<filter id="filter0_d_3_27" x="4.62769" y="1.39429" width="307.532" height="302.786" filterUnits="userSpaceOnUse" color-interpolation-filters="sRGB">
<feFlood flood-opacity="0" result="BackgroundImageFix"/>
<feColorMatrix in="SourceAlpha" type="matrix" values="0 0 0 0 0 0 0 0 0 0 0 0 0 0 0 0 0 0 127 0" result="hardAlpha"/>
<feMorphology radius="68" operator="dilate" in="SourceAlpha" result="effect1_dropShadow_3_27"/>
<feOffset dy="4"/>
<feGaussianBlur stdDeviation="17.75"/>
<feComposite in2="hardAlpha" operator="out"/>
<feColorMatrix type="matrix" values="0 0 0 0 1 0 0 0 0 1 0 0 0 0 1 0 0 0 0.25 0"/>
<feBlend mode="normal" in2="BackgroundImageFix" result="effect1_dropShadow_3_27"/>
<feBlend mode="normal" in="SourceGraphic" in2="effect1_dropShadow_3_27" result="shape"/>
</filter>
</defs>
</svg>
